<svg xmlns="http://www.w3.org/2000/svg" width="35.215" height="41.018" viewBox="0 0 35.215 41.018">
  <g id="Apple" transform="matrix(0.996, 0.087, -0.087, 0.996, -2.573, -680.014)">
    <g id="Component_2_116" data-name="Component 2 – 116" transform="translate(69 686)">
      <circle id="Ellipse_8" data-name="Ellipse 8" cx="2" cy="2" r="2" fill="#fff"/>
    </g>
    <g id="Component_2_117" data-name="Component 2 – 117" transform="translate(71 711)">
      <circle id="Ellipse_8-2" data-name="Ellipse 8" cx="2" cy="2" r="2" fill="#fff"/>
    </g>
    <g id="Component_2_118" data-name="Component 2 – 118" transform="translate(79 710)">
      <circle id="Ellipse_8-3" data-name="Ellipse 8" cx="2" cy="2" r="2" fill="#fff"/>
    </g>
    <g id="Component_2_119" data-name="Component 2 – 119" transform="translate(85 712)">
      <circle id="Ellipse_8-4" data-name="Ellipse 8" cx="2" cy="2" r="2" fill="#fff"/>
    </g>
    <g id="Component_2_120" data-name="Component 2 – 120" transform="translate(95 698)">
      <circle id="Ellipse_8-5" data-name="Ellipse 8" cx="2" cy="2" r="2" fill="#fff"/>
    </g>
    <g id="Component_2_121" data-name="Component 2 – 121" transform="translate(88 686)">
      <circle id="Ellipse_8-6" data-name="Ellipse 8" cx="2" cy="2" r="2" fill="#fff"/>
    </g>
    <g id="Component_2_122" data-name="Component 2 – 122" transform="translate(79 688)">
      <circle id="Ellipse_8-7" data-name="Ellipse 8" cx="2" cy="2" r="2" fill="#fff"/>
    </g>
    <g id="Component_2_123" data-name="Component 2 – 123" transform="translate(81 679)">
      <circle id="Ellipse_8-8" data-name="Ellipse 8" cx="2" cy="2" r="2" fill="#fff"/>
    </g>
    <g id="Component_2_124" data-name="Component 2 – 124" transform="translate(87 675)">
      <circle id="Ellipse_8-9" data-name="Ellipse 8" cx="2" cy="2" r="2" fill="#fff"/>
    </g>
    <g id="Component_2_125" data-name="Component 2 – 125" transform="translate(64 698)">
      <circle id="Ellipse_8-10" data-name="Ellipse 8" cx="2" cy="2" r="2" fill="#fff"/>
    </g>
    <line id="Line_29" data-name="Line 29" x1="6" y2="12" transform="translate(65.5 688.5)" fill="none" stroke="#fff" stroke-width="1" opacity="0.7"/>
    <line id="Line_30" data-name="Line 30" x2="8" y2="13" transform="translate(65.5 700.5)" fill="none" stroke="#fff" stroke-width="1" opacity="0.7"/>
    <line id="Line_31" data-name="Line 31" y1="2" x2="8" transform="translate(73.5 711.5)" fill="none" stroke="#fff" stroke-width="1" opacity="0.7"/>
    <line id="Line_32" data-name="Line 32" x2="6" y2="3" transform="translate(81.5 711.5)" fill="none" stroke="#fff" stroke-width="1" opacity="0.7"/>
    <line id="Line_33" data-name="Line 33" y1="15" x2="10" transform="translate(87.5 699.5)" fill="none" stroke="#fff" stroke-width="1" opacity="0.7"/>
    <line id="Line_34" data-name="Line 34" x1="8" y1="13" transform="translate(89.5 687.5)" fill="none" stroke="#fff" stroke-width="1" opacity="0.7"/>
    <line id="Line_35" data-name="Line 35" x1="10" y2="2" transform="translate(80.5 688.5)" fill="none" stroke="#fff" stroke-width="1" opacity="0.7"/>
    <line id="Line_36" data-name="Line 36" y1="9" x2="1" transform="translate(81.5 681.5)" fill="none" stroke="#fff" stroke-width="1" opacity="0.7"/>
    <line id="Line_37" data-name="Line 37" x2="10" y2="3" transform="translate(71.5 687.5)" fill="none" stroke="#fff" stroke-width="1" opacity="0.7"/>
    <line id="Line_38" data-name="Line 38" y1="5" x2="7" transform="translate(82.5 676.5)" fill="none" stroke="#fff" stroke-width="1" opacity="0.7"/>
  </g>
</svg>
