<svg xmlns="http://www.w3.org/2000/svg" width="45.269" height="35.269" viewBox="0 0 45.269 41.269">
  <g id="camera" transform="translate(-252 -103.945)">
    <circle id="Ellipse_52" data-name="Ellipse 52" cx="2" cy="2" r="2" transform="matrix(0.998, -0.07, 0.07, 0.998, 252, 110.224)" fill="#fff"/>
    <circle id="Ellipse_53" data-name="Ellipse 53" cx="2" cy="2" r="2" transform="matrix(0.998, -0.07, 0.07, 0.998, 252, 141.224)" fill="#fff"/>
    <circle id="Ellipse_54" data-name="Ellipse 54" cx="2" cy="2" r="2" transform="matrix(0.998, -0.07, 0.07, 0.998, 293, 141.224)" fill="#fff"/>
    <circle id="Ellipse_55" data-name="Ellipse 55" cx="2" cy="2" r="2" transform="matrix(0.998, -0.07, 0.07, 0.998, 293, 110.224)" fill="#fff"/>
    <circle id="Ellipse_56" data-name="Ellipse 56" cx="2" cy="2" r="2" transform="matrix(0.998, -0.07, 0.07, 0.998, 283, 110.224)" fill="#fff"/>
    <circle id="Ellipse_57" data-name="Ellipse 57" cx="2" cy="2" r="2" transform="matrix(0.998, -0.07, 0.07, 0.998, 280, 104.224)" fill="#fff"/>
    <circle id="Ellipse_58" data-name="Ellipse 58" cx="2" cy="2" r="2" transform="matrix(0.998, -0.07, 0.07, 0.998, 264, 104.224)" fill="#fff"/>
    <circle id="Ellipse_59" data-name="Ellipse 59" cx="2" cy="2" r="2" transform="matrix(0.998, -0.07, 0.07, 0.998, 262, 110.224)" fill="#fff"/>
    <circle id="Ellipse_60" data-name="Ellipse 60" cx="2" cy="2" r="2" transform="matrix(0.998, -0.07, 0.07, 0.998, 272, 117.224)" fill="#fff"/>
    <circle id="Ellipse_63" data-name="Ellipse 63" cx="2" cy="2" r="2" transform="matrix(0.998, -0.07, 0.07, 0.998, 272, 135.224)" fill="#fff"/>
    <circle id="Ellipse_61" data-name="Ellipse 61" cx="2" cy="2" r="2" transform="matrix(0.998, -0.07, 0.07, 0.998, 264, 122.224)" fill="#fff"/>
    <circle id="Ellipse_65" data-name="Ellipse 65" cx="2" cy="2" r="2" transform="matrix(0.998, -0.07, 0.07, 0.998, 281, 122.224)" fill="#fff"/>
    <circle id="Ellipse_62" data-name="Ellipse 62" cx="2" cy="2" r="2" transform="matrix(0.998, -0.07, 0.07, 0.998, 264, 130.224)" fill="#fff"/>
    <circle id="Ellipse_64" data-name="Ellipse 64" cx="2" cy="2" r="2" transform="matrix(0.998, -0.07, 0.07, 0.998, 281, 130.224)" fill="#fff"/>
    <g id="Group_33" data-name="Group 33" opacity="0.7">
      <line id="Line_141" data-name="Line 141" y2="32" transform="translate(253.5 111.5)" fill="none" stroke="#fff" stroke-width="1"/>
      <line id="Line_142" data-name="Line 142" x2="41" transform="translate(254.5 143.5)" fill="none" stroke="#fff" stroke-width="1"/>
      <line id="Line_143" data-name="Line 143" y2="31" transform="translate(295.5 112.5)" fill="none" stroke="#fff" stroke-width="1"/>
      <line id="Line_144" data-name="Line 144" x1="10" transform="translate(285.5 112.5)" fill="none" stroke="#fff" stroke-width="1"/>
      <line id="Line_145" data-name="Line 145" x2="3" y2="7" transform="translate(282.5 105.5)" fill="none" stroke="#fff" stroke-width="1"/>
      <line id="Line_146" data-name="Line 146" x1="16" transform="translate(266.5 105.5)" fill="none" stroke="#fff" stroke-width="1"/>
      <line id="Line_147" data-name="Line 147" x1="11" transform="translate(253.5 112.5)" fill="none" stroke="#fff" stroke-width="1"/>
      <line id="Line_148" data-name="Line 148" y1="6" x2="3" transform="translate(263.5 105.5)" fill="none" stroke="#fff" stroke-width="1"/>
      <line id="Line_149" data-name="Line 149" x1="9" y2="6" transform="translate(265.5 118.5)" fill="none" stroke="#fff" stroke-width="1"/>
      <line id="Line_150" data-name="Line 150" y2="8" transform="translate(265.5 124.5)" fill="none" stroke="#fff" stroke-width="1"/>
      <line id="Line_151" data-name="Line 151" x2="8" y2="5" transform="translate(266.5 132.5)" fill="none" stroke="#fff" stroke-width="1"/>
      <line id="Line_152" data-name="Line 152" y1="5" x2="9" transform="translate(274.5 132.5)" fill="none" stroke="#fff" stroke-width="1"/>
      <line id="Line_153" data-name="Line 153" y2="8" transform="translate(283.5 124.5)" fill="none" stroke="#fff" stroke-width="1"/>
      <line id="Line_154" data-name="Line 154" x2="9" y2="5" transform="translate(274.5 118.5)" fill="none" stroke="#fff" stroke-width="1"/>
    </g>
  </g>
</svg>
