<svg xmlns="http://www.w3.org/2000/svg" width="40.145" height="35.418" viewBox="0 0 40.145 35.418">
  <g id="Heart" transform="matrix(0.999, 0.035, -0.035, 0.999, -281.934, -195.305)">
    <g id="Component_2_7" data-name="Component 2 – 7" transform="translate(289 194.495)">
      <circle id="Ellipse_8" data-name="Ellipse 8" cx="1.461" cy="1.461" r="1.461" fill="#fff"/>
    </g>
    <g id="Component_2_8" data-name="Component 2 – 8" transform="translate(298.495 185)">
      <circle id="Ellipse_8-2" data-name="Ellipse 8" cx="1.461" cy="1.461" r="1.461" fill="#fff"/>
    </g>
    <g id="Component_2_9" data-name="Component 2 – 9" transform="translate(307.989 194.495)">
      <circle id="Ellipse_8-3" data-name="Ellipse 8" cx="1.461" cy="1.461" r="1.461" fill="#fff"/>
    </g>
    <g id="Component_2_10" data-name="Component 2 – 10" transform="translate(319.675 186.461)">
      <circle id="Ellipse_8-4" data-name="Ellipse 8" cx="1.461" cy="1.461" r="1.461" fill="#fff"/>
    </g>
    <g id="Component_2_11" data-name="Component 2 – 11" transform="translate(326.248 197.416)">
      <circle id="Ellipse_8-5" data-name="Ellipse 8" cx="1.461" cy="1.461" r="1.461" fill="#fff"/>
    </g>
    <g id="Component_2_12" data-name="Component 2 – 12" transform="translate(306.529 217.136)">
      <circle id="Ellipse_8-6" data-name="Ellipse 8" cx="1.461" cy="1.461" r="1.461" fill="#fff"/>
    </g>
    <line id="Line_5" data-name="Line 5" x2="17.529" y2="22.641" transform="translate(290.826 196.321)" fill="none" stroke="#fff" stroke-width="1"/>
    <line id="Line_6" data-name="Line 6" y1="10.225" x2="9.495" transform="translate(290.826 186.096)" fill="none" stroke="#fff" stroke-width="1"/>
    <line id="Line_7" data-name="Line 7" x2="9.495" y2="9.495" transform="translate(300.321 186.826)" fill="none" stroke="#fff" stroke-width="1"/>
    <line id="Line_8" data-name="Line 8" y1="8.764" x2="11.686" transform="translate(309.815 187.556)" fill="none" stroke="#fff" stroke-width="1"/>
    <line id="Line_9" data-name="Line 9" x2="7.304" y2="10.955" transform="translate(320.771 188.287)" fill="none" stroke="#fff" stroke-width="1"/>
    <line id="Line_10" data-name="Line 10" x1="20.45" y2="19.72" transform="translate(307.624 199.242)" fill="none" stroke="#fff" stroke-width="1"/>
  </g>
</svg>
