<svg xmlns="http://www.w3.org/2000/svg" width="39" height="35" viewBox="0 0 39 44">
  <g id="Music" transform="translate(-299 -441)">
    <g id="Component_2_101" data-name="Component 2 – 101" transform="translate(304 449)">
      <circle id="Ellipse_8" data-name="Ellipse 8" cx="2" cy="2" r="2" fill="#fff"/>
    </g>
    <g id="Component_2_102" data-name="Component 2 – 102" transform="translate(328 441)">
      <circle id="Ellipse_8-2" data-name="Ellipse 8" cx="2" cy="2" r="2" fill="#fff"/>
    </g>
    <g id="Component_2_103" data-name="Component 2 – 103" transform="translate(334 466)">
      <circle id="Ellipse_8-3" data-name="Ellipse 8" cx="2" cy="2" r="2" fill="#fff"/>
    </g>
    <g id="Component_2_104" data-name="Component 2 – 104" transform="translate(326 467)">
      <circle id="Ellipse_8-4" data-name="Ellipse 8" cx="2" cy="2" r="2" fill="#fff"/>
    </g>
    <g id="Component_2_105" data-name="Component 2 – 105" transform="translate(330 475)">
      <circle id="Ellipse_8-5" data-name="Ellipse 8" cx="2" cy="2" r="2" fill="#fff"/>
    </g>
    <g id="Component_2_106" data-name="Component 2 – 106" transform="translate(299 474)">
      <circle id="Ellipse_8-6" data-name="Ellipse 8" cx="2" cy="2" r="2" fill="#fff"/>
    </g>
    <g id="Component_2_107" data-name="Component 2 – 107" transform="translate(306 481)">
      <circle id="Ellipse_8-7" data-name="Ellipse 8" cx="2" cy="2" r="2" fill="#fff"/>
    </g>
    <g id="Component_2_108" data-name="Component 2 – 108" transform="translate(309 472)">
      <circle id="Ellipse_8-8" data-name="Ellipse 8" cx="2" cy="2" r="2" fill="#fff"/>
    </g>
    <line id="Line_11" data-name="Line 11" x2="6" y2="24" transform="translate(305.5 450.5)" fill="none" stroke="#fff" stroke-width="1" opacity="0.7"/>
    <line id="Line_12" data-name="Line 12" y1="3" x2="11" transform="translate(300.5 473.5)" fill="none" stroke="#fff" stroke-width="1" opacity="0.7"/>
    <line id="Line_13" data-name="Line 13" x1="3" y2="10" transform="translate(308.5 473.5)" fill="none" stroke="#fff" stroke-width="1" opacity="0.7"/>
    <line id="Line_14" data-name="Line 14" x2="8" y2="8" transform="translate(300.5 476.5)" fill="none" stroke="#fff" stroke-width="1" opacity="0.7"/>
    <line id="Line_15" data-name="Line 15" y1="7" x2="23" transform="translate(306.5 443.5)" fill="none" stroke="#fff" stroke-width="1" opacity="0.7"/>
    <line id="Line_16" data-name="Line 16" x1="7" y1="26" transform="translate(329.5 442.5)" fill="none" stroke="#fff" stroke-width="1" opacity="0.7"/>
    <line id="Line_17" data-name="Line 17" x1="9" y2="1" transform="translate(327.5 468.5)" fill="none" stroke="#fff" stroke-width="1" opacity="0.7"/>
    <line id="Line_18" data-name="Line 18" x2="4" y2="8" transform="translate(328.5 469.5)" fill="none" stroke="#fff" stroke-width="1" opacity="0.7"/>
    <line id="Line_19" data-name="Line 19" y1="10" x2="4" transform="translate(332.5 467.5)" fill="none" stroke="#fff" stroke-width="1" opacity="0.7"/>
  </g>
</svg>
