<svg xmlns="http://www.w3.org/2000/svg" width="44" height="32" viewBox="0 0 44 35">
  <g id="Pencil" transform="translate(-31.195 -603)">
    <g id="Component_2_109" data-name="Component 2 – 109" transform="translate(31.195 635)">
      <circle id="Ellipse_8" data-name="Ellipse 8" cx="1.5" cy="1.5" r="1.5" transform="translate(0 0)" fill="#fff"/>
    </g>
    <g id="Component_2_110" data-name="Component 2 – 110" transform="translate(37.195 619)">
      <circle id="Ellipse_8-2" data-name="Ellipse 8" cx="1.5" cy="1.5" r="1.5" transform="translate(0 0)" fill="#fff"/>
    </g>
    <g id="Component_2_111" data-name="Component 2 – 111" transform="translate(49.195 635)">
      <circle id="Ellipse_8-3" data-name="Ellipse 8" cx="1.5" cy="1.5" r="1.5" transform="translate(0 0)" fill="#fff"/>
    </g>
    <g id="Component_2_112" data-name="Component 2 – 112" transform="translate(62.195 603)">
      <circle id="Ellipse_8-4" data-name="Ellipse 8" cx="1.5" cy="1.5" r="1.5" transform="translate(0 0)" fill="#fff"/>
    </g>
    <g id="Component_2_113" data-name="Component 2 – 113" transform="translate(72.195 620)">
      <circle id="Ellipse_8-5" data-name="Ellipse 8" cx="1.5" cy="1.5" r="1.5" transform="translate(0 0)" fill="#fff"/>
    </g>
    <g id="Component_2_114" data-name="Component 2 – 114" transform="translate(43.195 627)">
      <circle id="Ellipse_8-6" data-name="Ellipse 8" cx="1.5" cy="1.5" r="1.5" transform="translate(0 0)" fill="#fff"/>
    </g>
    <g id="Component_2_115" data-name="Component 2 – 115" transform="translate(67.195 611)">
      <circle id="Ellipse_8-7" data-name="Ellipse 8" cx="1.5" cy="1.5" r="1.5" transform="translate(0 0)" fill="#fff"/>
    </g>
    <line id="Line_20" data-name="Line 20" x1="6.829" y2="15.366" transform="translate(32.28 621.354)" fill="none" stroke="#fff" stroke-width="1" opacity="0.7"/>
    <line id="Line_21" data-name="Line 21" y1="16.22" x2="24.756" transform="translate(39.11 604.281)" fill="none" stroke="#fff" stroke-width="1" opacity="0.7"/>
    <line id="Line_22" data-name="Line 22" x2="5.976" y2="8.537" transform="translate(63.012 604.281)" fill="none" stroke="#fff" stroke-width="1" opacity="0.7"/>
    <line id="Line_23" data-name="Line 23" x2="5.122" y2="9.39" transform="translate(68.988 612.817)" fill="none" stroke="#fff" stroke-width="1" opacity="0.7"/>
    <line id="Line_24" data-name="Line 24" x1="23.902" y2="14.512" transform="translate(50.207 622.207)" fill="none" stroke="#fff" stroke-width="1" opacity="0.7"/>
    <line id="Line_25" data-name="Line 25" x1="18.78" transform="translate(32.28 636.719)" fill="none" stroke="#fff" stroke-width="1" opacity="0.7"/>
    <line id="Line_26" data-name="Line 26" x2="5.976" y2="8.537" transform="translate(39.11 620.5)" fill="none" stroke="#fff" stroke-width="1" opacity="0.7"/>
    <line id="Line_27" data-name="Line 27" x1="5.976" y1="7.683" transform="translate(45.085 629.037)" fill="none" stroke="#fff" stroke-width="1" opacity="0.7"/>
    <line id="Line_28" data-name="Line 28" y1="17.073" x2="24.756" transform="translate(44.232 611.963)" fill="none" stroke="#fff" stroke-width="1" opacity="0.7"/>
  </g>
</svg>
