<svg xmlns="http://www.w3.org/2000/svg" width="53.269" height="48.269" viewBox="0 0 53.269 48.269">
  <g id="leaf" transform="translate(-689.208 -24.945)">
    <g id="Group_20" data-name="Group 20" opacity="0.7">
      <line id="Line_97" data-name="Line 97" y1="12" x2="9" transform="translate(691.5 59.5)" fill="none" stroke="#fff" stroke-width="1"/>
      <line id="Line_98" data-name="Line 98" x2="9" y2="8" transform="translate(700.5 60.5)" fill="none" stroke="#fff" stroke-width="1"/>
      <line id="Line_99" data-name="Line 99" x2="12" transform="translate(709.5 68.5)" fill="none" stroke="#fff" stroke-width="1"/>
      <line id="Line_100" data-name="Line 100" y1="7" x2="11" transform="translate(721.5 61.5)" fill="none" stroke="#fff" stroke-width="1"/>
      <line id="Line_101" data-name="Line 101" y1="13" x2="7" transform="translate(732.5 49.5)" fill="none" stroke="#fff" stroke-width="1"/>
      <line id="Line_102" data-name="Line 102" y1="12" x2="1" transform="translate(739.5 38.5)" fill="none" stroke="#fff" stroke-width="1"/>
      <line id="Line_103" data-name="Line 103" x1="3" y1="13" transform="translate(737.5 26.5)" fill="none" stroke="#fff" stroke-width="1"/>
      <line id="Line_104" data-name="Line 104" x1="14" y2="8" transform="translate(723.5 27.5)" fill="none" stroke="#fff" stroke-width="1"/>
      <line id="Line_105" data-name="Line 105" x1="13" transform="translate(711.5 35.5)" fill="none" stroke="#fff" stroke-width="1"/>
      <line id="Line_106" data-name="Line 106" x1="10" y2="6" transform="translate(702.5 35.5)" fill="none" stroke="#fff" stroke-width="1"/>
      <line id="Line_107" data-name="Line 107" x1="4" y2="12" transform="translate(698.5 41.5)" fill="none" stroke="#fff" stroke-width="1"/>
      <line id="Line_108" data-name="Line 108" x2="2" y2="7" transform="translate(698.5 53.5)" fill="none" stroke="#fff" stroke-width="1"/>
      <line id="Line_109" data-name="Line 109" y1="6" x2="12" transform="translate(700.5 53.5)" fill="none" stroke="#fff" stroke-width="1"/>
      <line id="Line_110" data-name="Line 110" y1="3" x2="12" transform="translate(712.5 51.5)" fill="none" stroke="#fff" stroke-width="1"/>
    </g>
    <g id="Group_21" data-name="Group 21">
      <g id="Component_2_507" data-name="Component 2 – 507" transform="matrix(0.998, -0.07, 0.07, 0.998, 689.208, 69.224)">
        <circle id="Ellipse_8" data-name="Ellipse 8" cx="2" cy="2" r="2" fill="#fff"/>
      </g>
      <g id="Component_2_547" data-name="Component 2 – 547" transform="matrix(0.998, -0.07, 0.07, 0.998, 696.208, 51.224)">
        <circle id="Ellipse_8-2" data-name="Ellipse 8" cx="2" cy="2" r="2" fill="#fff"/>
      </g>
      <g id="Component_2_548" data-name="Component 2 – 548" transform="matrix(0.998, -0.07, 0.07, 0.998, 700.208, 39.224)">
        <circle id="Ellipse_8-3" data-name="Ellipse 8" cx="2" cy="2" r="2" fill="#fff"/>
      </g>
      <g id="Component_2_549" data-name="Component 2 – 549" transform="matrix(0.998, -0.07, 0.07, 0.998, 710.208, 33.224)">
        <circle id="Ellipse_8-4" data-name="Ellipse 8" cx="2" cy="2" r="2" fill="#fff"/>
      </g>
      <g id="Component_2_550" data-name="Component 2 – 550" transform="matrix(0.998, -0.07, 0.07, 0.998, 722.208, 33.224)">
        <circle id="Ellipse_8-5" data-name="Ellipse 8" cx="2" cy="2" r="2" fill="#fff"/>
      </g>
      <g id="Component_2_551" data-name="Component 2 – 551" transform="matrix(0.998, -0.07, 0.07, 0.998, 735.208, 25.224)">
        <circle id="Ellipse_8-6" data-name="Ellipse 8" cx="2" cy="2" r="2" fill="#fff"/>
      </g>
      <g id="Component_2_552" data-name="Component 2 – 552" transform="matrix(0.998, -0.07, 0.07, 0.998, 738.208, 37.224)">
        <circle id="Ellipse_8-7" data-name="Ellipse 8" cx="2" cy="2" r="2" fill="#fff"/>
      </g>
      <g id="Component_2_553" data-name="Component 2 – 553" transform="matrix(0.998, -0.07, 0.07, 0.998, 737.208, 48.224)">
        <circle id="Ellipse_8-8" data-name="Ellipse 8" cx="2" cy="2" r="2" fill="#fff"/>
      </g>
      <g id="Component_2_554" data-name="Component 2 – 554" transform="matrix(0.998, -0.07, 0.07, 0.998, 730.208, 60.224)">
        <circle id="Ellipse_8-9" data-name="Ellipse 8" cx="2" cy="2" r="2" fill="#fff"/>
      </g>
      <g id="Component_2_555" data-name="Component 2 – 555" transform="matrix(0.998, -0.07, 0.07, 0.998, 719.208, 66.224)">
        <circle id="Ellipse_8-10" data-name="Ellipse 8" cx="2" cy="2" r="2" fill="#fff"/>
      </g>
      <g id="Component_2_556" data-name="Component 2 – 556" transform="matrix(0.998, -0.07, 0.07, 0.998, 707.208, 66.224)">
        <circle id="Ellipse_8-11" data-name="Ellipse 8" cx="2" cy="2" r="2" fill="#fff"/>
      </g>
      <g id="Component_2_546" data-name="Component 2 – 546" transform="matrix(0.998, -0.07, 0.07, 0.998, 698.208, 58.224)">
        <circle id="Ellipse_8-12" data-name="Ellipse 8" cx="2" cy="2" r="2" fill="#fff"/>
      </g>
      <g id="Component_2_557" data-name="Component 2 – 557" transform="matrix(0.998, -0.07, 0.07, 0.998, 710.208, 52.224)">
        <circle id="Ellipse_8-13" data-name="Ellipse 8" cx="2" cy="2" r="2" fill="#fff"/>
      </g>
      <g id="Component_2_558" data-name="Component 2 – 558" transform="matrix(0.998, -0.07, 0.07, 0.998, 722.208, 50.224)">
        <circle id="Ellipse_8-14" data-name="Ellipse 8" cx="2" cy="2" r="2" fill="#fff"/>
      </g>
    </g>
  </g>
</svg>
