<svg xmlns="http://www.w3.org/2000/svg" width="39.269" height="45.269" viewBox="0 0 39.269 54.269">
  <g id="lightbulb" transform="translate(-328 -96.945)">
    <circle id="Ellipse_66" data-name="Ellipse 66" cx="2" cy="2" r="2" transform="matrix(0.998, -0.07, 0.07, 0.998, 338, 141.224)" fill="#fff"/>
    <circle id="Ellipse_67" data-name="Ellipse 67" cx="2" cy="2" r="2" transform="matrix(0.998, -0.07, 0.07, 0.998, 353, 141.224)" fill="#fff"/>
    <circle id="Ellipse_68" data-name="Ellipse 68" cx="2" cy="2" r="2" transform="matrix(0.998, -0.07, 0.07, 0.998, 353, 147.224)" fill="#fff"/>
    <circle id="Ellipse_69" data-name="Ellipse 69" cx="2" cy="2" r="2" transform="matrix(0.998, -0.07, 0.07, 0.998, 338, 147.224)" fill="#fff"/>
    <circle id="Ellipse_70" data-name="Ellipse 70" cx="2" cy="2" r="2" transform="matrix(0.998, -0.07, 0.07, 0.998, 336, 134.224)" fill="#fff"/>
    <circle id="Ellipse_71" data-name="Ellipse 71" cx="2" cy="2" r="2" transform="matrix(0.998, -0.07, 0.07, 0.998, 336, 128.224)" fill="#fff"/>
    <circle id="Ellipse_72" data-name="Ellipse 72" cx="2" cy="2" r="2" transform="matrix(0.998, -0.07, 0.07, 0.998, 330, 121.224)" fill="#fff"/>
    <circle id="Ellipse_73" data-name="Ellipse 73" cx="2" cy="2" r="2" transform="matrix(0.998, -0.07, 0.07, 0.998, 328, 112.224)" fill="#fff"/>
    <circle id="Ellipse_74" data-name="Ellipse 74" cx="2" cy="2" r="2" transform="matrix(0.998, -0.07, 0.07, 0.998, 332, 102.224)" fill="#fff"/>
    <circle id="Ellipse_75" data-name="Ellipse 75" cx="2" cy="2" r="2" transform="matrix(0.998, -0.07, 0.07, 0.998, 340, 97.224)" fill="#fff"/>
    <circle id="Ellipse_76" data-name="Ellipse 76" cx="2" cy="2" r="2" transform="matrix(0.998, -0.07, 0.07, 0.998, 350, 97.224)" fill="#fff"/>
    <circle id="Ellipse_77" data-name="Ellipse 77" cx="2" cy="2" r="2" transform="matrix(0.998, -0.07, 0.07, 0.998, 359, 102.224)" fill="#fff"/>
    <circle id="Ellipse_78" data-name="Ellipse 78" cx="2" cy="2" r="2" transform="matrix(0.998, -0.07, 0.07, 0.998, 363, 112.224)" fill="#fff"/>
    <circle id="Ellipse_79" data-name="Ellipse 79" cx="2" cy="2" r="2" transform="matrix(0.998, -0.07, 0.07, 0.998, 361, 121.224)" fill="#fff"/>
    <circle id="Ellipse_80" data-name="Ellipse 80" cx="2" cy="2" r="2" transform="matrix(0.998, -0.07, 0.07, 0.998, 355, 128.224)" fill="#fff"/>
    <circle id="Ellipse_81" data-name="Ellipse 81" cx="2" cy="2" r="2" transform="matrix(0.998, -0.07, 0.07, 0.998, 355, 135.224)" fill="#fff"/>
    <g id="Group_35" data-name="Group 35" opacity="0.7">
      <line id="Line_155" data-name="Line 155" x2="15" transform="translate(340.5 142.5)" fill="none" stroke="#fff" stroke-width="1"/>
      <line id="Line_156" data-name="Line 156" y2="6" transform="translate(355.5 143.5)" fill="none" stroke="#fff" stroke-width="1"/>
      <line id="Line_157" data-name="Line 157" y2="6" transform="translate(339.5 143.5)" fill="none" stroke="#fff" stroke-width="1"/>
      <line id="Line_158" data-name="Line 158" x2="15" transform="translate(340.5 149.5)" fill="none" stroke="#fff" stroke-width="1"/>
      <line id="Line_159" data-name="Line 159" y1="7" transform="translate(357.5 130.5)" fill="none" stroke="#fff" stroke-width="1"/>
      <line id="Line_160" data-name="Line 160" y1="7" x2="6" transform="translate(357.5 123.5)" fill="none" stroke="#fff" stroke-width="1"/>
      <line id="Line_161" data-name="Line 161" y1="9" x2="2" transform="translate(363.5 114.5)" fill="none" stroke="#fff" stroke-width="1"/>
      <line id="Line_162" data-name="Line 162" x1="4" y1="10" transform="translate(361.5 104.5)" fill="none" stroke="#fff" stroke-width="1"/>
      <line id="Line_163" data-name="Line 163" x1="10" y1="5" transform="translate(351.5 98.5)" fill="none" stroke="#fff" stroke-width="1"/>
      <line id="Line_164" data-name="Line 164" x1="11" transform="translate(341.5 98.5)" fill="none" stroke="#fff" stroke-width="1"/>
      <line id="Line_165" data-name="Line 165" x1="8" y2="6" transform="translate(333.5 98.5)" fill="none" stroke="#fff" stroke-width="1"/>
      <line id="Line_166" data-name="Line 166" x1="4" y2="11" transform="translate(329.5 103.5)" fill="none" stroke="#fff" stroke-width="1"/>
      <line id="Line_167" data-name="Line 167" x2="2" y2="9" transform="translate(329.5 114.5)" fill="none" stroke="#fff" stroke-width="1"/>
      <line id="Line_168" data-name="Line 168" x2="5" y2="7" transform="translate(332.5 123.5)" fill="none" stroke="#fff" stroke-width="1"/>
      <line id="Line_169" data-name="Line 169" y2="6" transform="translate(337.5 130.5)" fill="none" stroke="#fff" stroke-width="1"/>
      <line id="Line_170" data-name="Line 170" x2="18" transform="translate(338.5 137.5)" fill="none" stroke="#fff" stroke-width="1"/>
    </g>
  </g>
</svg>
