<svg xmlns="http://www.w3.org/2000/svg" width="40.269" height="40.269" viewBox="0 0 48.269 48.269">
  <g id="pen" transform="translate(-227 -100.945)">
    <circle id="Ellipse_38" data-name="Ellipse 38" cx="2" cy="2" r="2" transform="matrix(0.998, -0.07, 0.07, 0.998, 227, 141.224)" fill="#fff"/>
    <circle id="Ellipse_39" data-name="Ellipse 39" cx="2" cy="2" r="2" transform="matrix(0.998, -0.07, 0.07, 0.998, 235, 115.224)" fill="#fff"/>
    <circle id="Ellipse_40" data-name="Ellipse 40" cx="2" cy="2" r="2" transform="matrix(0.998, -0.07, 0.07, 0.998, 251, 109.224)" fill="#fff"/>
    <circle id="Ellipse_48" data-name="Ellipse 48" cx="2" cy="2" r="2" transform="matrix(0.998, -0.07, 0.07, 0.998, 255, 105.224)" fill="#fff"/>
    <circle id="Ellipse_49" data-name="Ellipse 49" cx="2" cy="2" r="2" transform="matrix(0.998, -0.07, 0.07, 0.998, 261, 101.224)" fill="#fff"/>
    <circle id="Ellipse_50" data-name="Ellipse 50" cx="2" cy="2" r="2" transform="matrix(0.998, -0.07, 0.07, 0.998, 271, 110.224)" fill="#fff"/>
    <circle id="Ellipse_51" data-name="Ellipse 51" cx="2" cy="2" r="2" transform="matrix(0.998, -0.07, 0.07, 0.998, 267, 117.224)" fill="#fff"/>
    <circle id="Ellipse_41" data-name="Ellipse 41" cx="2" cy="2" r="2" transform="matrix(0.998, -0.07, 0.07, 0.998, 263, 121.224)" fill="#fff"/>
    <circle id="Ellipse_42" data-name="Ellipse 42" cx="2" cy="2" r="2" transform="matrix(0.998, -0.07, 0.07, 0.998, 257, 136.224)" fill="#fff"/>
    <circle id="Ellipse_43" data-name="Ellipse 43" cx="2" cy="2" r="2" transform="matrix(0.998, -0.07, 0.07, 0.998, 231, 145.224)" fill="#fff"/>
    <circle id="Ellipse_44" data-name="Ellipse 44" cx="2" cy="2" r="2" transform="matrix(0.998, -0.07, 0.07, 0.998, 244, 131.224)" fill="#fff"/>
    <circle id="Ellipse_45" data-name="Ellipse 45" cx="2" cy="2" r="2" transform="matrix(0.998, -0.07, 0.07, 0.998, 249, 128.224)" fill="#fff"/>
    <circle id="Ellipse_46" data-name="Ellipse 46" cx="2" cy="2" r="2" transform="matrix(0.998, -0.07, 0.07, 0.998, 244, 123.224)" fill="#fff"/>
    <circle id="Ellipse_47" data-name="Ellipse 47" cx="2" cy="2" r="2" transform="matrix(0.998, -0.07, 0.07, 0.998, 240, 128.224)" fill="#fff"/>
    <g id="Group_31" data-name="Group 31" opacity="0.7">
      <line id="Line_126" data-name="Line 126" y1="27" x2="8" transform="translate(229.5 116.5)" fill="none" stroke="#fff" stroke-width="1"/>
      <line id="Line_127" data-name="Line 127" y1="6" x2="16" transform="translate(237.5 111.5)" fill="none" stroke="#fff" stroke-width="1"/>
      <line id="Line_129" data-name="Line 129" y1="5" x2="6" transform="translate(257.5 102.5)" fill="none" stroke="#fff" stroke-width="1"/>
      <line id="Line_130" data-name="Line 130" x2="10" y2="10" transform="translate(263.5 102.5)" fill="none" stroke="#fff" stroke-width="1"/>
      <line id="Line_131" data-name="Line 131" x1="4" y2="8" transform="translate(269.5 111.5)" fill="none" stroke="#fff" stroke-width="1"/>
      <line id="Line_132" data-name="Line 132" x1="13" y1="13" transform="translate(256.5 106.5)" fill="none" stroke="#fff" stroke-width="1"/>
      <line id="Line_133" data-name="Line 133" x2="12" y2="12" transform="translate(253.5 111.5)" fill="none" stroke="#fff" stroke-width="1"/>
      <line id="Line_134" data-name="Line 134" x1="6" y2="16" transform="translate(259.5 122.5)" fill="none" stroke="#fff" stroke-width="1"/>
      <line id="Line_135" data-name="Line 135" x1="27" y2="9" transform="translate(232.5 138.5)" fill="none" stroke="#fff" stroke-width="1"/>
      <line id="Line_136" data-name="Line 136" y1="15" x2="13" transform="translate(233.5 132.5)" fill="none" stroke="#fff" stroke-width="1"/>
      <line id="Line_137" data-name="Line 137" y1="4" x2="6" transform="translate(245.5 129.5)" fill="none" stroke="#fff" stroke-width="1"/>
      <line id="Line_138" data-name="Line 138" x1="5" y1="6" transform="translate(246.5 124.5)" fill="none" stroke="#fff" stroke-width="1"/>
      <line id="Line_139" data-name="Line 139" x1="5" y2="6" transform="translate(241.5 124.5)" fill="none" stroke="#fff" stroke-width="1"/>
      <line id="Line_140" data-name="Line 140" x1="13" y2="13" transform="translate(229.5 130.5)" fill="none" stroke="#fff" stroke-width="1"/>
    </g>
  </g>
</svg>
