<svg xmlns="http://www.w3.org/2000/svg" width="36.715" height="36.175" viewBox="0 0 36.715 36.175">
  <g id="piano" transform="translate(-400 -33.039)">
    <g id="Group_7" data-name="Group 7" transform="translate(400 33.039)">
      <g id="Component_2_464" data-name="Component 2 – 464" transform="matrix(0.998, -0.07, 0.07, 0.998, 0, 0.279)">
        <circle id="Ellipse_8" data-name="Ellipse 8" cx="2" cy="2" r="2" fill="#fff"/>
      </g>
      <g id="Component_2_470" data-name="Component 2 – 470" transform="matrix(0.998, -0.07, 0.07, 0.998, 8.464, 0.279)">
        <circle id="Ellipse_8-2" data-name="Ellipse 8" cx="2" cy="2" r="2" fill="#fff"/>
      </g>
      <g id="Component_2_477" data-name="Component 2 – 477" transform="matrix(0.998, -0.07, 0.07, 0.998, 19.749, 0.279)">
        <circle id="Ellipse_8-3" data-name="Ellipse 8" cx="2" cy="2" r="2" fill="#fff"/>
      </g>
      <g id="Component_2_472" data-name="Component 2 – 472" transform="matrix(0.998, -0.07, 0.07, 0.998, 12.696, 0.279)">
        <circle id="Ellipse_8-4" data-name="Ellipse 8" cx="2" cy="2" r="2" fill="#fff"/>
      </g>
      <g id="Component_2_478" data-name="Component 2 – 478" transform="matrix(0.998, -0.07, 0.07, 0.998, 23.981, 0.279)">
        <circle id="Ellipse_8-5" data-name="Ellipse 8" cx="2" cy="2" r="2" fill="#fff"/>
      </g>
      <g id="Component_2_482" data-name="Component 2 – 482" transform="matrix(0.998, -0.07, 0.07, 0.998, 32.446, 0.279)">
        <circle id="Ellipse_8-6" data-name="Ellipse 8" cx="2" cy="2" r="2" fill="#fff"/>
      </g>
      <g id="Component_2_473" data-name="Component 2 – 473" transform="matrix(0.998, -0.07, 0.07, 0.998, 12.696, 17.372)">
        <circle id="Ellipse_8-7" data-name="Ellipse 8" cx="2" cy="2" r="2" fill="#fff"/>
      </g>
      <g id="Component_2_476" data-name="Component 2 – 476" transform="matrix(0.998, -0.07, 0.07, 0.998, 23.981, 17.372)">
        <circle id="Ellipse_8-8" data-name="Ellipse 8" cx="2" cy="2" r="2" fill="#fff"/>
      </g>
      <g id="Component_2_474" data-name="Component 2 – 474" transform="matrix(0.998, -0.07, 0.07, 0.998, 8.464, 17.372)">
        <circle id="Ellipse_8-9" data-name="Ellipse 8" cx="2" cy="2" r="2" fill="#fff"/>
      </g>
      <g id="Component_2_475" data-name="Component 2 – 475" transform="matrix(0.998, -0.07, 0.07, 0.998, 19.749, 17.372)">
        <circle id="Ellipse_8-10" data-name="Ellipse 8" cx="2" cy="2" r="2" fill="#fff"/>
      </g>
      <g id="Component_2_465" data-name="Component 2 – 465" transform="matrix(0.998, -0.07, 0.07, 0.998, 0, 32.185)">
        <circle id="Ellipse_8-11" data-name="Ellipse 8" cx="2" cy="2" r="2" fill="#fff"/>
      </g>
      <g id="Component_2_466" data-name="Component 2 – 466" transform="matrix(0.998, -0.07, 0.07, 0.998, 11.285, 32.185)">
        <circle id="Ellipse_8-12" data-name="Ellipse 8" cx="2" cy="2" r="2" fill="#fff"/>
      </g>
      <g id="Component_2_467" data-name="Component 2 – 467" transform="matrix(0.998, -0.07, 0.07, 0.998, 22.16, 32.185)">
        <circle id="Ellipse_8-13" data-name="Ellipse 8" cx="2" cy="2" r="2" fill="#fff"/>
      </g>
      <g id="Component_2_468" data-name="Component 2 – 468" transform="matrix(0.998, -0.07, 0.07, 0.998, 32.446, 32.185)">
        <circle id="Ellipse_8-14" data-name="Ellipse 8" cx="2" cy="2" r="2" fill="#fff"/>
      </g>
    </g>
    <g id="Group_16" data-name="Group 16">
      <line id="Line_53" data-name="Line 53" x2="32.446" transform="translate(402.319 35.563)" fill="none" stroke="#fff" stroke-width="1" opacity="0.7"/>
      <line id="Line_59" data-name="Line 59" x1="32.446" transform="translate(402.319 67.469)" fill="none" stroke="#fff" stroke-width="1" opacity="0.7"/>
      <line id="Line_52" data-name="Line 52" y1="31.906" transform="translate(402.319 35.563)" fill="none" stroke="#fff" stroke-width="1" opacity="0.7"/>
      <line id="Line_54" data-name="Line 54" y2="14.813" transform="translate(413.604 52.655)" fill="none" stroke="#fff" stroke-width="1" opacity="0.7"/>
      <line id="Line_55" data-name="Line 55" y1="17.092" transform="translate(415.015 35.563)" fill="none" stroke="#fff" stroke-width="1" opacity="0.7"/>
      <line id="Line_56" data-name="Line 56" y2="17.092" transform="translate(410.783 35.563)" fill="none" stroke="#fff" stroke-width="1" opacity="0.7"/>
      <line id="Line_57" data-name="Line 57" y2="17.092" transform="translate(422.068 35.563)" fill="none" stroke="#fff" stroke-width="1" opacity="0.7"/>
      <line id="Line_58" data-name="Line 58" y2="17.092" transform="translate(426.3 35.563)" fill="none" stroke="#fff" stroke-width="1" opacity="0.7"/>
      <line id="Line_60" data-name="Line 60" y1="14.813" transform="translate(424.479 52.655)" fill="none" stroke="#fff" stroke-width="1" opacity="0.7"/>
      <line id="Line_61" data-name="Line 61" y2="31.906" transform="translate(434.765 35.563)" fill="none" stroke="#fff" stroke-width="1" opacity="0.7"/>
      <line id="Line_82" data-name="Line 82" x2="5" transform="translate(410.5 52.5)" fill="none" stroke="#fff" stroke-width="1" opacity="0.7"/>
      <line id="Line_83" data-name="Line 83" x2="5" transform="translate(421.5 52.5)" fill="none" stroke="#fff" stroke-width="1" opacity="0.7"/>
    </g>
  </g>
</svg>
