<svg xmlns="http://www.w3.org/2000/svg" width="24" height="21" viewBox="0 0 24 21">
  <path id="Icon_awesome-quote-left" data-name="Icon awesome-quote-left" d="M21.75,12.75H18v-3a3,3,0,0,1,3-3h.375A1.122,1.122,0,0,0,22.5,5.625V3.375A1.122,1.122,0,0,0,21.375,2.25H21a7.5,7.5,0,0,0-7.5,7.5V21a2.251,2.251,0,0,0,2.25,2.25h6A2.251,2.251,0,0,0,24,21V15A2.251,2.251,0,0,0,21.75,12.75Zm-13.5,0H4.5v-3a3,3,0,0,1,3-3h.375A1.122,1.122,0,0,0,9,5.625V3.375A1.122,1.122,0,0,0,7.875,2.25H7.5A7.5,7.5,0,0,0,0,9.75V21a2.251,2.251,0,0,0,2.25,2.25h6A2.251,2.251,0,0,0,10.5,21V15A2.251,2.251,0,0,0,8.25,12.75Z" transform="translate(0 -2.25)" fill="#fff"/>
</svg>
