<svg xmlns="http://www.w3.org/2000/svg" width="38.654" height="37.747" viewBox="0 0 38.654 37.747">
  <g id="Speech" transform="matrix(0.998, -0.07, 0.07, 0.998, -389.339, -1063.858)">
    <g id="Component_2_132" data-name="Component 2 – 132" transform="translate(314 1091)">
      <circle id="Ellipse_8" data-name="Ellipse 8" cx="2" cy="2" r="2" fill="#fff"/>
    </g>
    <g id="Component_2_133" data-name="Component 2 – 133" transform="translate(347 1091)">
      <circle id="Ellipse_8-2" data-name="Ellipse 8" cx="2" cy="2" r="2" fill="#fff"/>
    </g>
    <g id="Component_2_134" data-name="Component 2 – 134" transform="translate(347 1112)">
      <circle id="Ellipse_8-3" data-name="Ellipse 8" cx="2" cy="2" r="2" fill="#fff"/>
    </g>
    <g id="Component_2_135" data-name="Component 2 – 135" transform="translate(314 1112)">
      <circle id="Ellipse_8-4" data-name="Ellipse 8" cx="2" cy="2" r="2" fill="#fff"/>
    </g>
    <g id="Component_2_136" data-name="Component 2 – 136" transform="translate(331 1112)">
      <circle id="Ellipse_8-5" data-name="Ellipse 8" cx="2" cy="2" r="2" fill="#fff"/>
    </g>
    <g id="Component_2_137" data-name="Component 2 – 137" transform="translate(339 1124)">
      <circle id="Ellipse_8-6" data-name="Ellipse 8" cx="2" cy="2" r="2" fill="#fff"/>
    </g>
    <g id="Component_2_138" data-name="Component 2 – 138" transform="translate(339 1112)">
      <circle id="Ellipse_8-7" data-name="Ellipse 8" cx="2" cy="2" r="2" fill="#fff"/>
    </g>
    <line id="Line_45" data-name="Line 45" y2="21" transform="translate(316.5 1093.5)" fill="none" stroke="#fff" stroke-width="1" opacity="0.7"/>
    <line id="Line_46" data-name="Line 46" x2="17" transform="translate(316.5 1114.5)" fill="none" stroke="#fff" stroke-width="1" opacity="0.7"/>
    <line id="Line_47" data-name="Line 47" y2="21" transform="translate(349.5 1093.5)" fill="none" stroke="#fff" stroke-width="1" opacity="0.7"/>
    <line id="Line_48" data-name="Line 48" x1="33" transform="translate(316.5 1093.5)" fill="none" stroke="#fff" stroke-width="1" opacity="0.7"/>
    <line id="Line_49" data-name="Line 49" x2="8" y2="12" transform="translate(333.5 1114.5)" fill="none" stroke="#fff" stroke-width="1" opacity="0.7"/>
    <line id="Line_50" data-name="Line 50" y2="12" transform="translate(341.5 1114.5)" fill="none" stroke="#fff" stroke-width="1" opacity="0.7"/>
    <line id="Line_51" data-name="Line 51" x2="8" transform="translate(341.5 1114.5)" fill="none" stroke="#fff" stroke-width="1" opacity="0.7"/>
  </g>
</svg>
